<?xml version="1.0" standalone="no"?>
<!DOCTYPE svg PUBLIC "-//W3C//DTD SVG 20010904//EN"
 "http://www.w3.org/TR/2001/REC-SVG-20010904/DTD/svg10.dtd">
<svg version="1.0" xmlns="http://www.w3.org/2000/svg"
 width="512.000000pt" height="512.000000pt" viewBox="0 0 512.000000 512.000000"
 preserveAspectRatio="xMidYMid meet">
<metadata>
Created by potrace 1.11, written by Peter Selinger 2001-2013
</metadata>
<g transform="translate(0.000000,512.000000) scale(0.100000,-0.100000)"
fill="#000000" stroke="none">
<path d="M2460 4539 c-144 -65 -193 -233 -105 -363 21 -31 21 -35 6 -39 -17
-4 -63 -178 -374 -1399 -27 -109 -53 -198 -57 -198 -3 0 -269 251 -590 557
-321 306 -585 552 -586 547 -2 -5 73 -409 164 -899 l167 -890 1475 0 1475 0
167 895 c91 492 165 897 163 899 -3 2 -608 -570 -1127 -1068 -26 -24 -50 -43
-52 -40 -3 2 -96 362 -208 798 -160 626 -206 795 -219 798 -15 4 -14 9 7 40
111 164 -7 383 -206 383 -34 0 -72 -8 -100 -21z m178 -70 c108 -53 130 -203
40 -286 -69 -64 -190 -56 -251 16 -74 89 -46 225 56 272 55 24 101 24 155 -2z
m100 -486 c12 -43 107 -415 212 -828 106 -412 193 -752 196 -754 5 -5 62 49
618 579 262 250 480 456 484 458 5 1 -42 -267 -103 -595 l-112 -598 -1473 0
-1473 0 -103 550 c-56 303 -107 572 -112 598 -5 26 -6 46 -1 45 4 -2 251 -235
548 -518 297 -283 544 -516 549 -518 4 -1 100 357 212 795 112 439 207 813
212 831 l9 32 158 0 159 0 20 -77z m1274 -1858 l-4 -35 -1449 0 c-1422 0
-1449 0 -1449 19 0 11 -3 26 -6 35 -6 15 127 16 1453 16 l1459 0 -4 -35z m-26
-131 c-3 -9 -6 -27 -6 -40 l0 -24 -1420 0 c-1346 0 -1420 1 -1420 18 0 9 -3
27 -6 40 l-6 22 1432 0 c1302 0 1432 -1 1426 -16z"/>
<path d="M2015 1441 c-134 -38 -201 -78 -465 -270 -312 -229 -388 -266 -540
-266 -76 0 -93 4 -152 33 -40 19 -97 61 -142 103 l-76 71 0 -64 c0 -239 161
-422 419 -474 137 -27 296 -16 700 50 530 86 658 121 756 208 l45 40 40 -36
c103 -93 208 -122 790 -218 289 -47 329 -52 485 -52 151 -1 178 2 245 22 104
33 169 72 233 142 87 93 126 193 127 318 l0 64 -76 -71 c-45 -42 -102 -84
-142 -103 -62 -31 -74 -33 -162 -32 -81 0 -105 4 -164 29 -83 34 -191 104
-396 257 -180 134 -300 206 -402 239 -60 20 -94 24 -188 24 -108 0 -120 -2
-190 -33 -41 -17 -102 -52 -135 -77 -33 -25 -63 -45 -68 -45 -5 0 -27 15 -48
34 -54 46 -144 92 -214 111 -77 20 -204 18 -280 -4z m243 -61 c74 -17 171 -71
238 -133 l64 -59 65 60 c69 63 160 114 235 131 161 37 323 -18 566 -194 71
-52 173 -126 227 -166 201 -145 323 -194 472 -187 84 3 100 8 171 43 44 22 83
42 88 44 5 2 -6 -24 -24 -58 -54 -102 -140 -166 -275 -207 -47 -15 -92 -19
-205 -18 -128 0 -186 7 -494 57 -613 101 -701 129 -786 255 -19 28 -37 51 -40
51 -3 0 -21 -23 -40 -51 -85 -126 -173 -154 -786 -255 -308 -50 -366 -57 -494
-57 -113 -1 -158 3 -205 18 -136 41 -227 111 -280 216 -15 29 -23 50 -18 48 4
-2 44 -21 87 -43 70 -34 90 -40 168 -43 48 -3 109 1 135 7 92 22 245 108 398
223 283 212 386 274 509 309 69 20 160 23 224 9z"/>
</g>
</svg>
